<?xml version="1.0" encoding="UTF-8" standalone="no"?>
<svg
   width="32"
   height="32"
   viewBox="0 0 32 32"
   version="1.1"
   id="svg1"
   sodipodi:docname="dep.svg"
   inkscape:version="1.4.2 (f4327f4, 2025-05-13)"
   xmlns:inkscape="http://www.inkscape.org/namespaces/inkscape"
   xmlns:sodipodi="http://sodipodi.sourceforge.net/DTD/sodipodi-0.dtd"
   xmlns="http://www.w3.org/2000/svg"
   xmlns:svg="http://www.w3.org/2000/svg">
  <sodipodi:namedview
     id="namedview1"
     pagecolor="#ffffff"
     bordercolor="#000000"
     borderopacity="0.25"
     inkscape:showpageshadow="2"
     inkscape:pageopacity="0.0"
     inkscape:pagecheckerboard="0"
     inkscape:deskcolor="#d1d1d1"
     showgrid="true"
     inkscape:zoom="36.46875"
     inkscape:cx="15.972579"
     inkscape:cy="16"
     inkscape:window-width="2560"
     inkscape:window-height="1369"
     inkscape:window-x="1912"
     inkscape:window-y="-8"
     inkscape:window-maximized="1"
     inkscape:current-layer="svg1">
    <inkscape:grid
       id="grid1"
       units="px"
       originx="-0.027420737"
       originy="0"
       spacingx="1"
       spacingy="1"
       empcolor="#0099e5"
       empopacity="0.30196078"
       color="#0099e5"
       opacity="0.14901961"
       empspacing="5"
       enabled="true"
       visible="true" />
    <inkscape:page
       x="0"
       y="0"
       width="32"
       height="32"
       id="page1"
       margin="0"
       bleed="0" />
  </sodipodi:namedview>
  <!-- Generator: Sketch 40.3 (33839) - http://www.bohemiancoding.com/sketch -->
  <title
     id="title1">Slice</title>
  <desc
     id="desc1">Created with Sketch.</desc>
  <defs
     id="defs1" />
  <g
     id="g1"
     stroke="none"
     stroke-width="1"
     fill="none"
     fill-rule="evenodd"
     style="fill:#000000;stroke:#000000;stroke-opacity:1"
     transform="rotate(-26.471148,16,15.424)">
    <g
       id="dep"
       transform="translate(4,6)"
       fill="#ffffff"
       style="fill:#000000;stroke:#000000;stroke-opacity:1">
      <g
         id="Page-1"
         style="fill:#000000;stroke:#000000;stroke-opacity:1">
        <path
           d="m 5.1428571,16.277818 c 0,0.71394 -0.25,1.320788 -0.75,1.820546 C 3.8928571,18.598121 3.2857143,18.848 2.5714286,18.848 1.8571429,18.848 1.25,18.598121 0.75,18.098364 0.25,17.598606 0,16.991758 0,16.277818 0,15.563879 0.25,14.95703 0.75,14.457273 c 0.5,-0.499758 1.1071429,-0.749637 1.8214286,-0.749637 0.7142857,0 1.3214285,0.249879 1.8214285,0.749637 0.5,0.499757 0.75,1.106606 0.75,1.820545 z m 0,-6.853818 c 0,0.713939 -0.25,1.320788 -0.75,1.820545 -0.5,0.499758 -1.1071428,0.749637 -1.8214285,0.749637 C 1.8571429,11.994182 1.25,11.744303 0.75,11.244545 0.25,10.744788 0,10.137939 0,9.424 0,8.7100606 0.25,8.1032121 0.75,7.6034545 1.25,7.103697 1.8571429,6.8538182 2.5714286,6.8538182 c 0.7142857,0 1.3214285,0.2498788 1.8214285,0.7496363 0.5,0.4997576 0.75,1.1066061 0.75,1.8205455 z M 24,14.992727 v 2.570182 c 0,0.116015 -0.04241,0.216413 -0.127232,0.301193 -0.08482,0.08478 -0.185268,0.127171 -0.301339,0.127171 H 7.2857143 c -0.1160714,0 -0.2165179,-0.04239 -0.3013393,-0.127171 -0.084821,-0.08478 -0.1272321,-0.185178 -0.1272321,-0.301193 v -2.570182 c 0,-0.116015 0.042411,-0.216413 0.1272321,-0.301193 0.084821,-0.08478 0.1852679,-0.12717 0.3013393,-0.12717 H 23.571429 c 0.116071,0 0.216517,0.04239 0.301339,0.12717 C 23.957589,14.776314 24,14.876712 24,14.992727 Z M 5.1428571,2.5701818 c 0,0.7139394 -0.25,1.3207879 -0.75,1.8205455 -0.5,0.4997575 -1.1071428,0.7496363 -1.8214285,0.7496363 C 1.8571429,5.1403636 1.25,4.8904848 0.75,4.3907273 0.25,3.8909697 0,3.2841212 0,2.5701818 0,1.8562424 0.25,1.2493939 0.75,0.74963636 1.25,0.24987879 1.8571429,0 2.5714286,0 c 0.7142857,0 1.3214285,0.24987879 1.8214285,0.74963636 0.5,0.49975754 0.75,1.10660604 0.75,1.82054544 z M 24,8.1389091 v 2.5701819 c 0,0.116015 -0.04241,0.216413 -0.127232,0.301193 -0.08482,0.08478 -0.185268,0.127171 -0.301339,0.127171 H 7.2857143 c -0.1160714,0 -0.2165179,-0.04239 -0.3013393,-0.127171 C 6.899554,10.925504 6.8571429,10.825106 6.8571429,10.709091 V 8.1389091 c 0,-0.1160152 0.042411,-0.2164129 0.1272321,-0.3011932 0.084821,-0.08478 0.1852679,-0.1271704 0.3013393,-0.1271704 H 23.571429 c 0.116071,0 0.216517,0.04239 0.301339,0.1271704 C 23.957589,7.9224962 24,8.0228939 24,8.1389091 Z m 0,-6.8538182 v 2.5701818 c 0,0.1160152 -0.04241,0.2164129 -0.127232,0.3011932 -0.08482,0.08478 -0.185268,0.1271705 -0.301339,0.1271705 H 7.2857143 c -0.1160714,0 -0.2165179,-0.04239 -0.3013393,-0.1271705 C 6.8995536,4.0716856 6.8571429,3.9712879 6.8571429,3.8552727 V 1.2850909 c 0,-0.1160151 0.042411,-0.2164129 0.1272321,-0.30119317 C 7.069196,0.89911743 7.1696429,0.85672727 7.2857143,0.85672727 H 23.571429 c 0.116071,0 0.216517,0.0423901 0.301339,0.12717046 C 23.957589,1.068678 24,1.1690758 24,1.2850909 Z"
           id="Shape"
           style="display:inline;fill:#000000;fill-opacity:1;stroke:#000000;stroke-opacity:1" />
      </g>
    </g>
  </g>
</svg>
